<svg xmlns="http://www.w3.org/2000/svg" viewBox="0 0 64 64"><defs><linearGradient id="a" x1="12" x2="52" y1="20" y2="48" gradientUnits="userSpaceOnUse"><stop offset="0" stop-color="#78716c"/><stop offset="1" stop-color="#44403c"/></linearGradient></defs><ellipse cx="32" cy="34" rx="18" ry="14" fill="url(#a)" stroke="#292524" stroke-width=".5"/><path d="M14 30c-2-2-2-6 0-6s2 2 2 4M50 30c2-2 2-6 0-6s-2 2-2 4" fill="none" stroke="#44403c" stroke-width="1.5" stroke-linecap="round"/><circle cx="24" cy="30" r="1.5" fill="#1e293b"/><circle cx="40" cy="30" r="1.5" fill="#1e293b"/><ellipse cx="32" cy="36" rx="4" ry="3" fill="#a8a29e" stroke="#78716c" stroke-width=".5"/><circle cx="30" cy="35" r="1" fill="#44403c"/><circle cx="34" cy="35" r="1" fill="#44403c"/><path d="M22 48v4M28 48v4M36 48v4M42 48v4" fill="none" stroke="#44403c" stroke-width="2" stroke-linecap="round"/></svg>