<svg xmlns="http://www.w3.org/2000/svg" viewBox="0 0 64 64"><defs><linearGradient id="a" x1="10" x2="54" y1="24" y2="40" gradientUnits="userSpaceOnUse"><stop offset="0" stop-color="#94a3b8"/><stop offset="1" stop-color="#64748b"/></linearGradient></defs><path d="M10 32c0-6 5-12 16-14l5-3v5c5 0 9 2 13 5l8 1v8l-8 1c-4 3-8 5-13 5v5l-5-3C15 44 10 38 10 32z" fill="url(#a)" stroke="#475569" stroke-width=".5" stroke-linejoin="round"/><circle cx="19" cy="29" r="1.5" fill="#fff"/><circle cx="19" cy="29" r=".8" fill="#1e293b"/><path d="M14 30q-5-3-6-6M14 31q-4 2-6 5M14 30.5q-6 0-8 0" fill="none" stroke="#475569" stroke-width="1" stroke-linecap="round"/></svg>