<svg xmlns="http://www.w3.org/2000/svg" viewBox="0 0 64 64"><defs><linearGradient id="a" x1="20" x2="44" y1="10" y2="54" gradientUnits="userSpaceOnUse"><stop offset="0" stop-color="#b8860b"/><stop offset="1" stop-color="#8b6914"/></linearGradient></defs><path d="M32 16c-4 0-7 3-9 7-2 4-1 8 0 12l-5 7c-1 2 0 3 1 3h4l1 7c0 2 1 3 3 3h10c2 0 3-1 3-3l1-7h4c1 0 2-1 1-3l-5-7c1-4 2-8 0-12-2-4-5-7-9-7z" fill="url(#a)" stroke="#6b4f10" stroke-width=".5" stroke-linejoin="round"/><path d="M24 18c-2-4-4-8-2-12l-4 2 2-4M40 18c2-4 4-8 2-12l4 2-2-4" fill="none" stroke="#8b6914" stroke-width="2" stroke-linecap="round" stroke-linejoin="round"/><circle cx="28" cy="26" r="1.5" fill="#1e293b"/><circle cx="36" cy="26" r="1.5" fill="#1e293b"/></svg>