<svg xmlns="http://www.w3.org/2000/svg" viewBox="0 0 64 64"><defs><linearGradient id="a" x1="18" x2="44" y1="16" y2="52" gradientUnits="userSpaceOnUse"><stop offset="0" stop-color="#a8a29e"/><stop offset="1" stop-color="#57534e"/></linearGradient></defs><path d="M46 50c-8 3-15 1-19-4-4-6-3-14 3-19 4-4 10-4 13 0 3 3 3 8 0 11-2 2-5 2-6 0" fill="url(#a)" stroke="#44403c" stroke-width=".5" stroke-linejoin="round"/><path d="M20 50c-8-2-13-9-13-18C7 22 12 15 19 13c3-1 6 1 6 4 0 4-4 5-6 9-3 5-2 12 3 17" fill="url(#a)" stroke="#44403c" stroke-width=".5" stroke-linejoin="round"/><path d="M36 22c-1-4 0-6 2-7 2 1 3 3 2 7" fill="#78716c"/><path d="M44 24c2-3 4-4 6-3 0 3-1 5-4 6" fill="#78716c"/><circle cx="41" cy="27" r="1.7" fill="#1c1917"/><ellipse cx="47" cy="30" rx="2" ry="1.5" fill="#1c1917"/><path d="M28 50h20" stroke="#44403c" stroke-width="2" stroke-linecap="round"/></svg>
