<svg xmlns="http://www.w3.org/2000/svg" viewBox="0 0 64 64"><defs><linearGradient id="a" x1="20" x2="44" y1="24" y2="52" gradientUnits="userSpaceOnUse"><stop offset="0" stop-color="#92400e"/><stop offset="1" stop-color="#78350f"/></linearGradient></defs><path d="M22 20c4-6 16-6 20 0s2 14-2 18H24c-4-4-6-12-2-18z" fill="url(#a)" stroke="#451a03" stroke-width=".5"/><path d="M18 18c-2-4-4-2-4 0s2 4 4 4M46 18c2-4 4-2 4 0s-2 4-4 4M22 14c-1-4 2-6 4-4M42 14c1-4-2-6-4-4M32 12c0-4 2-6 3-4" fill="#ef4444" stroke="#dc2626" stroke-width=".5" stroke-linecap="round"/><circle cx="26" cy="28" r="6" fill="#d4a574" stroke="#92400e" stroke-width=".5"/><path d="M20 30l-3 1c-1 0-1 1 0 1l3-1z" fill="#f59e0b"/><circle cx="24" cy="27" r="1" fill="#1e293b"/><path d="M28 42v8M36 42v8" fill="none" stroke="#f59e0b" stroke-width="2" stroke-linecap="round"/></svg>