<svg xmlns="http://www.w3.org/2000/svg" viewBox="0 0 64 64"><defs><linearGradient id="a" x1="20" x2="44" y1="10" y2="54" gradientUnits="userSpaceOnUse"><stop offset="0" stop-color="#d4a574"/><stop offset="1" stop-color="#92400e"/></linearGradient></defs><path d="M32 14c-3 0-6 2-8 6-2 4-2 8-1 12l-5 8c-1 2 0 3 1 3h4l1 8c0 2 1 3 3 3h10c2 0 3-1 3-3l1-8h4c1 0 2-1 1-3l-5-8c1-4 1-8-1-12-2-4-5-6-8-6z" fill="url(#a)" stroke="#78350f" stroke-width=".5" stroke-linejoin="round"/><path d="M24 16c-3-6-6-8-4-12M40 16c3-6 6-8 4-12" fill="none" stroke="#92400e" stroke-width="2" stroke-linecap="round"/><circle cx="28" cy="24" r="1.5" fill="#1e293b"/><circle cx="36" cy="24" r="1.5" fill="#1e293b"/><ellipse cx="32" cy="29" rx="2" ry="1.5" fill="#1e293b" opacity=".3"/></svg>